<svg width="32" height="32" viewBox="0 0 32 32" fill="none" xmlns="http://www.w3.org/2000/svg">
<g clip-path="url(#clip0_731_4281)">
<path d="M11 28H9C5.1401 28 2 24.8599 2 21V19H4V21C4 23.7568 6.2432 26 9 26H11V28Z" fill="#EE2555"/>
<path d="M28.17 26L25.59 28.58L27 30L31 26L27 22L25.58 23.41L28.17 26Z" fill="#EE2555"/>
<path d="M22 31L20.085 30.4229L23 21L24.9149 21.5771L22 31Z" fill="#EE2555"/>
<path d="M16.83 26L19.41 23.42L18 22L14 26L18 30L19.42 28.59L16.83 26Z" fill="#EE2555"/>
<path d="M30 19H28V12C28 9.2386 25.7614 7 23 7H19V5H23C26.866 5 30 8.134 30 12V19Z" fill="#EE2555"/>
<path d="M3 5C3.55228 5 4 4.55228 4 4C4 3.44772 3.55228 3 3 3C2.44772 3 2 3.44772 2 4C2 4.55228 2.44772 5 3 5Z" fill="#EE2555"/>
<path d="M16 3H6V5H16V3Z" fill="#EE2555"/>
<path d="M3 13C3.55228 13 4 12.5523 4 12C4 11.4477 3.55228 11 3 11C2.44772 11 2 11.4477 2 12C2 12.5523 2.44772 13 3 13Z" fill="#EE2555"/>
<path d="M16 11H6V13H16V11Z" fill="#EE2555"/>
<path d="M12 15H2V17H12V15Z" fill="#EE2555"/>
<path d="M15 9C15.5523 9 16 8.55228 16 8C16 7.44772 15.5523 7 15 7C14.4477 7 14 7.44772 14 8C14 8.55228 14.4477 9 15 9Z" fill="#EE2555"/>
<path d="M12 7H2V9H12V7Z" fill="#EE2555"/>
<path d="M15 17C15.5523 17 16 16.5523 16 16C16 15.4477 15.5523 15 15 15C14.4477 15 14 15.4477 14 16C14 16.5523 14.4477 17 15 17Z" fill="#EE2555"/>
</g>
<defs>
<clipPath id="clip0_731_4281">
<rect width="32" height="32" fill="white"/>
</clipPath>
</defs>
</svg>
